ffmpeg started on 2016-11-29 at 13:28:01
Report written to "Output/x264/results/ffmpeg/old_town_cross_2160p50veryfast1000k.log"
Command line:
Tools/ffmpeg/ffmpeg -benchmark -y -i Input/y4m/old_town_cross_2160p50.y4m -c:v libx264 -preset veryfast -b:v 1000k -an Output/x264/encoded/old_town_cross_2160p50veryfast1000k.mkv
ffmpeg version N-82227-gdb23fde Copyright (c) 2000-2016 the FFmpeg developers
  built with gcc 5.4.0 (Ubuntu 5.4.0-6ubuntu1~16.04.2) 20160609
  configuration: --prefix=/home/jaroslav/ffmpeg_build --pkg-config-flags=--static --extra-cflags=-I/home/jaroslav/ffmpeg_build/include --extra-ldflags=-L/home/jaroslav/ffmpeg_build/lib --bindir=/home/jaroslav/bin --enable-gpl --enable-libass --enable-libfdk-aac --enable-libfreetype --enable-libmp3lame --enable-libopus --enable-libtheora --enable-libvorbis --enable-libvpx --enable-libx264 --enable-libx265 --enable-nvenc --enable-libmfx --enable-libxvid --enable-libgsm --enable-libopencore-amrnb --enable-version3 --enable-nonfree
  libavutil      55. 35.100 / 55. 35.100
  libavcodec     57. 66.101 / 57. 66.101
  libavformat    57. 57.100 / 57. 57.100
  libavdevice    57.  2.100 / 57.  2.100
  libavfilter     6. 66.100 /  6. 66.100
  libswscale      4.  3.100 /  4.  3.100
  libswresample   2.  4.100 /  2.  4.100
  libpostproc    54.  2.100 / 54.  2.100
Input #0, yuv4mpegpipe, from 'Input/y4m/old_town_cross_2160p50.y4m':
  Duration: 00:00:10.00, start: 0.000000, bitrate: 4976642 kb/s
    Stream #0:0: Video: rawvideo (I420 / 0x30323449), yuv420p(progressive), 3840x2160, SAR 1:1 DAR 16:9, 50 fps, 50 tbr, 50 tbn, 50 tbc
[libx264 @ 0x3b8b120] using SAR=1/1
[libx264 @ 0x3b8b120] using cpu capabilities: MMX2 SSE2Fast SSSE3 SSE4.2 AVX FMA3 AVX2 LZCNT BMI2
[libx264 @ 0x3b8b120] profile High, level 5.2
[libx264 @ 0x3b8b120] 264 - core 148 - H.264/MPEG-4 AVC codec - Copyleft 2003-2016 - http://www.videolan.org/x264.html - options: cabac=1 ref=1 deblock=1:0:0 analyse=0x3:0x113 me=hex subme=2 psy=1 psy_rd=1.00:0.00 mixed_ref=0 me_range=16 chroma_me=1 trellis=0 8x8dct=1 cqm=0 deadzone=21,11 fast_pskip=1 chroma_qp_offset=0 threads=6 lookahead_threads=2 sliced_threads=0 nr=0 decimate=1 interlaced=0 bluray_compat=0 constrained_intra=0 bframes=3 b_pyramid=2 b_adapt=1 b_bias=0 direct=1 weightb=1 open_gop=0 weightp=1 keyint=250 keyint_min=25 scenecut=40 intra_refresh=0 rc_lookahead=10 rc=abr mbtree=1 bitrate=1000 ratetol=1.0 qcomp=0.60 qpmin=0 qpmax=69 qpstep=4 ip_ratio=1.40 aq=1:1.00
Output #0, matroska, to 'Output/x264/encoded/old_town_cross_2160p50veryfast1000k.mkv':
  Metadata:
    encoder         : Lavf57.57.100
    Stream #0:0: Video: h264 (libx264) (H264 / 0x34363248), yuv420p, 3840x2160 [SAR 1:1 DAR 16:9], q=-1--1, 1000 kb/s, 50 fps, 1k tbn, 50 tbc
    Metadata:
      encoder         : Lavc57.66.101 libx264
    Side data:
      cpb: bitrate max/min/avg: 0/0/1000000 buffer size: 0 vbv_delay: -1
Stream mapping:
  Stream #0:0 -> #0:0 (rawvideo (native) -> h264 (libx264))
Press [q] to stop, [?] for help
frame=   22 fps=0.0 q=54.0 size=       1kB time=-00:00:00.01 bitrate=N/A speed=N/A    frame=   38 fps= 35 q=56.0 size=       1kB time=00:00:00.30 bitrate=  19.5kbits/s speed=0.277x    frame=   54 fps= 34 q=54.0 size=       1kB time=00:00:00.62 bitrate=   9.4kbits/s speed=0.388x    frame=   70 fps= 33 q=53.0 size=       1kB time=00:00:00.94 bitrate=   6.2kbits/s speed=0.443x    frame=   86 fps= 32 q=53.0 size=       1kB time=00:00:01.26 bitrate=   4.7kbits/s speed=0.472x    frame=  102 fps= 32 q=52.0 size=       1kB time=00:00:01.58 bitrate=   3.7kbits/s speed=0.493x    frame=  118 fps= 32 q=52.0 size=       1kB time=00:00:01.90 bitrate=   3.1kbits/s speed=0.508x    frame=  134 fps= 31 q=52.0 size=       1kB time=00:00:02.22 bitrate=   2.6kbits/s speed=0.52x    frame=  150 fps= 31 q=52.0 size=       1kB time=00:00:02.54 bitrate=   2.3kbits/s speed=0.529x    frame=  166 fps= 31 q=52.0 size=       1kB time=00:00:02.86 bitrate=   2.0kbits/s speed=0.537x    frame=  182 fps= 31 q=52.0 size=       1kB time=00:00:03.18 bitrate=   1.8kbits/s speed=0.544x    frame=  198 fps= 31 q=51.0 size=       1kB time=00:00:03.50 bitrate=   1.7kbits/s speed=0.547x    frame=  214 fps= 31 q=51.0 size=       1kB time=00:00:03.82 bitrate=   1.5kbits/s speed=0.551x    frame=  230 fps= 31 q=51.0 size=       1kB time=00:00:04.14 bitrate=   1.4kbits/s speed=0.554x    frame=  236 fps= 29 q=52.0 size=       1kB time=00:00:04.26 bitrate=   1.4kbits/s speed=0.531x    frame=  244 fps= 29 q=52.0 size=       1kB time=00:00:04.42 bitrate=   1.3kbits/s speed=0.519x    frame=  252 fps= 28 q=52.0 size=       1kB time=00:00:04.58 bitrate=   1.3kbits/s speed=0.507x    frame=  260 fps= 27 q=53.0 size=       1kB time=00:00:04.74 bitrate=   1.2kbits/s speed=0.497x    frame=  271 fps= 27 q=53.0 size=     615kB time=00:00:04.96 bitrate=1015.6kbits/s speed=0.493x    frame=  287 fps= 27 q=53.0 size=     615kB time=00:00:05.28 bitrate= 954.1kbits/s speed=0.498x    frame=  303 fps= 27 q=53.0 size=     615kB time=00:00:05.60 bitrate= 899.6kbits/s speed=0.503x    frame=  319 fps= 27 q=53.0 size=     615kB time=00:00:05.92 bitrate= 850.9kbits/s speed=0.507x    frame=  335 fps= 27 q=53.0 size=     615kB time=00:00:06.24 bitrate= 807.3kbits/s speed=0.511x    frame=  351 fps= 28 q=53.0 size=     615kB time=00:00:06.56 bitrate= 767.9kbits/s speed=0.514x    frame=  367 fps= 28 q=53.0 size=     615kB time=00:00:06.88 bitrate= 732.2kbits/s speed=0.518x    frame=  383 fps= 28 q=53.0 size=     615kB time=00:00:07.20 bitrate= 699.7kbits/s speed=0.52x    frame=  399 fps= 28 q=53.0 size=     615kB time=00:00:07.52 bitrate= 669.9kbits/s speed=0.523x    frame=  415 fps= 28 q=53.0 size=     615kB time=00:00:07.84 bitrate= 642.6kbits/s speed=0.526x    frame=  431 fps= 28 q=53.0 size=     615kB time=00:00:08.16 bitrate= 617.4kbits/s speed=0.529x    frame=  447 fps= 28 q=53.0 size=     615kB time=00:00:08.48 bitrate= 594.1kbits/s speed=0.531x    frame=  463 fps= 28 q=54.0 size=     615kB time=00:00:08.80 bitrate= 572.5kbits/s speed=0.534x    frame=  474 fps= 28 q=54.0 size=     615kB time=00:00:09.02 bitrate= 558.5kbits/s speed=0.529x    frame=  481 fps= 27 q=54.0 size=     615kB time=00:00:09.16 bitrate= 550.0kbits/s speed=0.522x    frame=  489 fps= 27 q=54.0 size=     615kB time=00:00:09.32 bitrate= 540.5kbits/s speed=0.516x    frame=  497 fps= 27 q=55.0 size=     615kB time=00:00:09.48 bitrate= 531.4kbits/s speed=0.511x    frame=  500 fps= 26 q=-1.0 Lsize=    1355kB time=00:00:09.94 bitrate=1116.3kbits/s speed=0.515x    
video:1350kB audio:0kB subtitle:0kB other streams:0kB global headers:0kB muxing overhead: 0.315522%
bench: utime=52.656s
bench: maxrss=1082624kB
[libx264 @ 0x3b8b120] frame I:3     Avg QP:49.12  size: 26501
[libx264 @ 0x3b8b120] frame P:183   Avg QP:50.63  size:  5711
[libx264 @ 0x3b8b120] frame B:314   Avg QP:50.85  size:   820
[libx264 @ 0x3b8b120] consecutive B-frames: 16.0%  0.8%  0.0% 83.2%
[libx264 @ 0x3b8b120] mb I  I16..4: 61.2% 38.8%  0.0%
[libx264 @ 0x3b8b120] mb P  I16..4:  2.9%  2.8%  0.0%  P16..4:  2.4%  0.2%  0.1%  0.0%  0.0%    skip:91.6%
[libx264 @ 0x3b8b120] mb B  I16..4:  0.1%  0.0%  0.0%  B16..8:  0.5%  0.0%  0.0%  direct: 0.3%  skip:99.1%  L0:47.1% L1:52.9% BI: 0.1%
[libx264 @ 0x3b8b120] final ratefactor: 46.07
[libx264 @ 0x3b8b120] 8x8 transform intra:46.4% inter:69.1%
[libx264 @ 0x3b8b120] coded y,uvDC,uvAC intra: 9.7% 26.1% 0.8% inter: 0.0% 0.3% 0.0%
[libx264 @ 0x3b8b120] i16 v,h,dc,p: 60% 29%  8%  3%
[libx264 @ 0x3b8b120] i8 v,h,dc,ddl,ddr,vr,hd,vl,hu:  6% 11% 75%  1%  1%  1%  2%  1%  2%
[libx264 @ 0x3b8b120] i8c dc,h,v,p: 97%  2%  1%  0%
[libx264 @ 0x3b8b120] Weighted P-Frames: Y:0.5% UV:0.0%
[libx264 @ 0x3b8b120] kb/s:1105.68
